<svg id="visual" viewBox="0 0 1900 1000" width="1900" height="1000"
    xmlns="http://www.w3.org/2000/svg"
    xmlns:xlink="http://www.w3.org/1999/xlink" version="1.1">
    <path d="M0 896L45.2 878.5C90.3 861 180.7 826 271.2 806.7C361.7 787.3 452.3 783.7 542.8 787.3C633.3 791 723.7 802 814.2 814.2C904.7 826.3 995.3 839.7 1085.8 844.8C1176.3 850 1266.7 847 1357.2 838.7C1447.7 830.3 1538.3 816.7 1628.8 807.7C1719.3 798.7 1809.7 794.3 1854.8 792.2L1900 790L1900 0L1854.8 0C1809.7 0 1719.3 0 1628.8 0C1538.3 0 1447.7 0 1357.2 0C1266.7 0 1176.3 0 1085.8 0C995.3 0 904.7 0 814.2 0C723.7 0 633.3 0 542.8 0C452.3 0 361.7 0 271.2 0C180.7 0 90.3 0 45.2 0L0 0Z" fill="#6424c7"></path>
    <path d="M0 756L45.2 737.7C90.3 719.3 180.7 682.7 271.2 655C361.7 627.3 452.3 608.7 542.8 611.8C633.3 615 723.7 640 814.2 646.5C904.7 653 995.3 641 1085.8 652C1176.3 663 1266.7 697 1357.2 714.8C1447.7 732.7 1538.3 734.3 1628.8 713.8C1719.3 693.3 1809.7 650.7 1854.8 629.3L1900 608L1900 0L1854.8 0C1809.7 0 1719.3 0 1628.8 0C1538.3 0 1447.7 0 1357.2 0C1266.7 0 1176.3 0 1085.8 0C995.3 0 904.7 0 814.2 0C723.7 0 633.3 0 542.8 0C452.3 0 361.7 0 271.2 0C180.7 0 90.3 0 45.2 0L0 0Z" fill="#511eab"></path>
    <path d="M0 520L45.2 515.3C90.3 510.7 180.7 501.3 271.2 508C361.7 514.7 452.3 537.3 542.8 532.3C633.3 527.3 723.7 494.7 814.2 488.3C904.7 482 995.3 502 1085.8 525.5C1176.3 549 1266.7 576 1357.2 593.2C1447.7 610.3 1538.3 617.7 1628.8 612C1719.3 606.3 1809.7 587.7 1854.8 578.3L1900 569L1900 0L1854.8 0C1809.7 0 1719.3 0 1628.8 0C1538.3 0 1447.7 0 1357.2 0C1266.7 0 1176.3 0 1085.8 0C995.3 0 904.7 0 814.2 0C723.7 0 633.3 0 542.8 0C452.3 0 361.7 0 271.2 0C180.7 0 90.3 0 45.2 0L0 0Z" fill="#3f178f"></path>
    <path d="M0 479L45.2 478.7C90.3 478.3 180.7 477.7 271.2 452C361.7 426.3 452.3 375.7 542.8 351.3C633.3 327 723.7 329 814.2 333.7C904.7 338.3 995.3 345.7 1085.8 370.7C1176.3 395.7 1266.7 438.3 1357.2 444.2C1447.7 450 1538.3 419 1628.8 393.8C1719.3 368.7 1809.7 349.3 1854.8 339.7L1900 330L1900 0L1854.8 0C1809.7 0 1719.3 0 1628.8 0C1538.3 0 1447.7 0 1357.2 0C1266.7 0 1176.3 0 1085.8 0C995.3 0 904.7 0 814.2 0C723.7 0 633.3 0 542.8 0C452.3 0 361.7 0 271.2 0C180.7 0 90.3 0 45.2 0L0 0Z" fill="#2e1175"></path>
    <path d="M0 264L45.2 257.7C90.3 251.3 180.7 238.7 271.2 252.5C361.7 266.3 452.3 306.7 542.8 309.2C633.3 311.7 723.7 276.3 814.2 252.7C904.7 229 995.3 217 1085.8 218.2C1176.3 219.3 1266.7 233.7 1357.2 257.5C1447.7 281.3 1538.3 314.7 1628.8 305.5C1719.3 296.3 1809.7 244.7 1854.8 218.8L1900 193L1900 0L1854.8 0C1809.7 0 1719.3 0 1628.8 0C1538.3 0 1447.7 0 1357.2 0C1266.7 0 1176.3 0 1085.8 0C995.3 0 904.7 0 814.2 0C723.7 0 633.3 0 542.8 0C452.3 0 361.7 0 271.2 0C180.7 0 90.3 0 45.2 0L0 0Z" fill="#1e0a5a"></path>
    <path d="M0 186L45.2 167C90.3 148 180.7 110 271.2 96C361.7 82 452.3 92 542.8 99.5C633.3 107 723.7 112 814.2 109.2C904.7 106.3 995.3 95.7 1085.8 99.7C1176.3 103.7 1266.7 122.3 1357.2 145.7C1447.7 169 1538.3 197 1628.8 196.5C1719.3 196 1809.7 167 1854.8 152.5L1900 138L1900 0L1854.8 0C1809.7 0 1719.3 0 1628.8 0C1538.3 0 1447.7 0 1357.2 0C1266.7 0 1176.3 0 1085.8 0C995.3 0 904.7 0 814.2 0C723.7 0 633.3 0 542.8 0C452.3 0 361.7 0 271.2 0C180.7 0 90.3 0 45.2 0L0 0Z" fill="#110241"></path>
</svg>