<svg id="visual" viewBox="0 0 900 600" width="900" height="600" xmlns="http://www.w3.org/2000/svg" xmlns:xlink="http://www.w3.org/1999/xlink" version="1.1"><path d="M0 426L21.5 416.7C43 407.3 86 388.7 128.8 383C171.7 377.3 214.3 384.7 257.2 392.2C300 399.7 343 407.3 385.8 416C428.7 424.7 471.3 434.3 514.2 434.3C557 434.3 600 424.7 642.8 415C685.7 405.3 728.3 395.7 771.2 387.3C814 379 857 372 878.5 368.5L900 365L900 0L878.5 0C857 0 814 0 771.2 0C728.3 0 685.7 0 642.8 0C600 0 557 0 514.2 0C471.3 0 428.7 0 385.8 0C343 0 300 0 257.2 0C214.3 0 171.7 0 128.8 0C86 0 43 0 21.5 0L0 0Z" fill="#6424c7"></path><path d="M0 339L21.5 332.5C43 326 86 313 128.8 303.5C171.7 294 214.3 288 257.2 299.2C300 310.3 343 338.7 385.8 354.5C428.7 370.3 471.3 373.7 514.2 375.2C557 376.7 600 376.3 642.8 371.7C685.7 367 728.3 358 771.2 350.5C814 343 857 337 878.5 334L900 331L900 0L878.5 0C857 0 814 0 771.2 0C728.3 0 685.7 0 642.8 0C600 0 557 0 514.2 0C471.3 0 428.7 0 385.8 0C343 0 300 0 257.2 0C214.3 0 171.7 0 128.8 0C86 0 43 0 21.5 0L0 0Z" fill="#511eab"></path><path d="M0 301L21.5 302.3C43 303.7 86 306.3 128.8 292.7C171.7 279 214.3 249 257.2 243.7C300 238.3 343 257.7 385.8 269.8C428.7 282 471.3 287 514.2 292.2C557 297.3 600 302.7 642.8 304.3C685.7 306 728.3 304 771.2 300.8C814 297.7 857 293.3 878.5 291.2L900 289L900 0L878.5 0C857 0 814 0 771.2 0C728.3 0 685.7 0 642.8 0C600 0 557 0 514.2 0C471.3 0 428.7 0 385.8 0C343 0 300 0 257.2 0C214.3 0 171.7 0 128.8 0C86 0 43 0 21.5 0L0 0Z" fill="#3f178f"></path><path d="M0 185L21.5 186.5C43 188 86 191 128.8 186.3C171.7 181.7 214.3 169.3 257.2 170.5C300 171.7 343 186.3 385.8 191.5C428.7 196.7 471.3 192.3 514.2 195.2C557 198 600 208 642.8 213.7C685.7 219.3 728.3 220.7 771.2 215.5C814 210.3 857 198.7 878.5 192.8L900 187L900 0L878.5 0C857 0 814 0 771.2 0C728.3 0 685.7 0 642.8 0C600 0 557 0 514.2 0C471.3 0 428.7 0 385.8 0C343 0 300 0 257.2 0C214.3 0 171.7 0 128.8 0C86 0 43 0 21.5 0L0 0Z" fill="#2e1175"></path><path d="M0 117L21.5 121.8C43 126.7 86 136.3 128.8 135.2C171.7 134 214.3 122 257.2 115.3C300 108.7 343 107.3 385.8 107.5C428.7 107.7 471.3 109.3 514.2 108.3C557 107.3 600 103.7 642.8 112.2C685.7 120.7 728.3 141.3 771.2 146.2C814 151 857 140 878.5 134.5L900 129L900 0L878.5 0C857 0 814 0 771.2 0C728.3 0 685.7 0 642.8 0C600 0 557 0 514.2 0C471.3 0 428.7 0 385.8 0C343 0 300 0 257.2 0C214.3 0 171.7 0 128.8 0C86 0 43 0 21.5 0L0 0Z" fill="#1e0a5a"></path><path d="M0 70L21.5 75.5C43 81 86 92 128.8 86.8C171.7 81.7 214.3 60.3 257.2 56.5C300 52.7 343 66.3 385.8 75.8C428.7 85.3 471.3 90.7 514.2 85.5C557 80.3 600 64.7 642.8 64.2C685.7 63.7 728.3 78.3 771.2 87.2C814 96 857 99 878.5 100.5L900 102L900 0L878.5 0C857 0 814 0 771.2 0C728.3 0 685.7 0 642.8 0C600 0 557 0 514.2 0C471.3 0 428.7 0 385.8 0C343 0 300 0 257.2 0C214.3 0 171.7 0 128.8 0C86 0 43 0 21.5 0L0 0Z" fill="#110241"></path></svg>