<svg id="visual" viewBox="0 0 900 600" width="900" height="600" xmlns="http://www.w3.org/2000/svg" xmlns:xlink="http://www.w3.org/1999/xlink" version="1.1"><path d="M0 533L21.5 521.3C43 509.7 86 486.3 128.8 479.2C171.7 472 214.3 481 257.2 490.3C300 499.7 343 509.3 385.8 520.2C428.7 531 471.3 543 514.2 543C557 543 600 531 642.8 519C685.7 507 728.3 495 771.2 484.5C814 474 857 465 878.5 460.5L900 456L900 0L878.5 0C857 0 814 0 771.2 0C728.3 0 685.7 0 642.8 0C600 0 557 0 514.2 0C471.3 0 428.7 0 385.8 0C343 0 300 0 257.2 0C214.3 0 171.7 0 128.8 0C86 0 43 0 21.5 0L0 0Z" fill="#6424c7"></path><path d="M0 424L21.5 415.8C43 407.7 86 391.3 128.8 379.3C171.7 367.3 214.3 359.7 257.2 373.7C300 387.7 343 423.3 385.8 443.2C428.7 463 471.3 467 514.2 468.8C557 470.7 600 470.3 642.8 464.7C685.7 459 728.3 448 771.2 438.8C814 429.7 857 422.3 878.5 418.7L900 415L900 0L878.5 0C857 0 814 0 771.2 0C728.3 0 685.7 0 642.8 0C600 0 557 0 514.2 0C471.3 0 428.7 0 385.8 0C343 0 300 0 257.2 0C214.3 0 171.7 0 128.8 0C86 0 43 0 21.5 0L0 0Z" fill="#511eab"></path><path d="M0 376L21.5 377.8C43 379.7 86 383.3 128.8 366.3C171.7 349.3 214.3 311.7 257.2 304.8C300 298 343 322 385.8 337.2C428.7 352.3 471.3 358.7 514.2 365.2C557 371.7 600 378.3 642.8 380.5C685.7 382.7 728.3 380.3 771.2 376.5C814 372.7 857 367.3 878.5 364.7L900 362L900 0L878.5 0C857 0 814 0 771.2 0C728.3 0 685.7 0 642.8 0C600 0 557 0 514.2 0C471.3 0 428.7 0 385.8 0C343 0 300 0 257.2 0C214.3 0 171.7 0 128.8 0C86 0 43 0 21.5 0L0 0Z" fill="#3f178f"></path><path d="M0 231L21.5 233C43 235 86 239 128.8 233.2C171.7 227.3 214.3 211.7 257.2 213.2C300 214.7 343 233.3 385.8 239.8C428.7 246.3 471.3 240.7 514.2 244.2C557 247.7 600 260.3 642.8 267.5C685.7 274.7 728.3 276.3 771.2 269.8C814 263.3 857 248.7 878.5 241.3L900 234L900 0L878.5 0C857 0 814 0 771.2 0C728.3 0 685.7 0 642.8 0C600 0 557 0 514.2 0C471.3 0 428.7 0 385.8 0C343 0 300 0 257.2 0C214.3 0 171.7 0 128.8 0C86 0 43 0 21.5 0L0 0Z" fill="#2e1175"></path><path d="M0 147L21.5 152.8C43 158.7 86 170.3 128.8 168.7C171.7 167 214.3 152 257.2 143.8C300 135.7 343 134.3 385.8 134.7C428.7 135 471.3 137 514.2 135.7C557 134.3 600 129.7 642.8 140.2C685.7 150.7 728.3 176.3 771.2 182.3C814 188.3 857 174.7 878.5 167.8L900 161L900 0L878.5 0C857 0 814 0 771.2 0C728.3 0 685.7 0 642.8 0C600 0 557 0 514.2 0C471.3 0 428.7 0 385.8 0C343 0 300 0 257.2 0C214.3 0 171.7 0 128.8 0C86 0 43 0 21.5 0L0 0Z" fill="#1e0a5a"></path><path d="M0 87L21.5 94C43 101 86 115 128.8 108.5C171.7 102 214.3 75 257.2 70.2C300 65.3 343 82.7 385.8 94.7C428.7 106.7 471.3 113.3 514.2 106.8C557 100.3 600 80.7 642.8 80.2C685.7 79.7 728.3 98.3 771.2 109.5C814 120.7 857 124.3 878.5 126.2L900 128L900 0L878.5 0C857 0 814 0 771.2 0C728.3 0 685.7 0 642.8 0C600 0 557 0 514.2 0C471.3 0 428.7 0 385.8 0C343 0 300 0 257.2 0C214.3 0 171.7 0 128.8 0C86 0 43 0 21.5 0L0 0Z" fill="#110241"></path></svg>