<svg id="visual" viewBox="0 0 900 600" width="900" height="600" xmlns="http://www.w3.org/2000/svg" xmlns:xlink="http://www.w3.org/1999/xlink" version="1.1"><path d="M0 522L21.5 513.5C43 505 86 488 128.8 488.2C171.7 488.3 214.3 505.7 257.2 520.3C300 535 343 547 385.8 539.2C428.7 531.3 471.3 503.7 514.2 495.2C557 486.7 600 497.3 642.8 505.7C685.7 514 728.3 520 771.2 515.7C814 511.3 857 496.7 878.5 489.3L900 482L900 0L878.5 0C857 0 814 0 771.2 0C728.3 0 685.7 0 642.8 0C600 0 557 0 514.2 0C471.3 0 428.7 0 385.8 0C343 0 300 0 257.2 0C214.3 0 171.7 0 128.8 0C86 0 43 0 21.5 0L0 0Z" fill="#6424c7"></path><path d="M0 377L21.5 392.8C43 408.7 86 440.3 128.8 443.2C171.7 446 214.3 420 257.2 410.5C300 401 343 408 385.8 406.3C428.7 404.7 471.3 394.3 514.2 392.7C557 391 600 398 642.8 404.7C685.7 411.3 728.3 417.7 771.2 428.3C814 439 857 454 878.5 461.5L900 469L900 0L878.5 0C857 0 814 0 771.2 0C728.3 0 685.7 0 642.8 0C600 0 557 0 514.2 0C471.3 0 428.7 0 385.8 0C343 0 300 0 257.2 0C214.3 0 171.7 0 128.8 0C86 0 43 0 21.5 0L0 0Z" fill="#511eab"></path><path d="M0 351L21.5 342.3C43 333.7 86 316.3 128.8 321C171.7 325.7 214.3 352.3 257.2 363.5C300 374.7 343 370.3 385.8 355.8C428.7 341.3 471.3 316.7 514.2 313.5C557 310.3 600 328.7 642.8 335.2C685.7 341.7 728.3 336.3 771.2 339.5C814 342.7 857 354.3 878.5 360.2L900 366L900 0L878.5 0C857 0 814 0 771.2 0C728.3 0 685.7 0 642.8 0C600 0 557 0 514.2 0C471.3 0 428.7 0 385.8 0C343 0 300 0 257.2 0C214.3 0 171.7 0 128.8 0C86 0 43 0 21.5 0L0 0Z" fill="#3f178f"></path><path d="M0 307L21.5 303.8C43 300.7 86 294.3 128.8 284.5C171.7 274.7 214.3 261.3 257.2 263.8C300 266.3 343 284.7 385.8 289.8C428.7 295 471.3 287 514.2 286.8C557 286.7 600 294.3 642.8 283.7C685.7 273 728.3 244 771.2 235.5C814 227 857 239 878.5 245L900 251L900 0L878.5 0C857 0 814 0 771.2 0C728.3 0 685.7 0 642.8 0C600 0 557 0 514.2 0C471.3 0 428.7 0 385.8 0C343 0 300 0 257.2 0C214.3 0 171.7 0 128.8 0C86 0 43 0 21.5 0L0 0Z" fill="#2e1175"></path><path d="M0 140L21.5 137.8C43 135.7 86 131.3 128.8 138.7C171.7 146 214.3 165 257.2 178.2C300 191.3 343 198.7 385.8 194C428.7 189.3 471.3 172.7 514.2 159.5C557 146.3 600 136.7 642.8 130.5C685.7 124.3 728.3 121.7 771.2 131.5C814 141.3 857 163.7 878.5 174.8L900 186L900 0L878.5 0C857 0 814 0 771.2 0C728.3 0 685.7 0 642.8 0C600 0 557 0 514.2 0C471.3 0 428.7 0 385.8 0C343 0 300 0 257.2 0C214.3 0 171.7 0 128.8 0C86 0 43 0 21.5 0L0 0Z" fill="#1e0a5a"></path><path d="M0 62L21.5 62C43 62 86 62 128.8 59.7C171.7 57.3 214.3 52.7 257.2 54.2C300 55.7 343 63.3 385.8 62.5C428.7 61.7 471.3 52.3 514.2 46.7C557 41 600 39 642.8 48.2C685.7 57.3 728.3 77.7 771.2 90.2C814 102.7 857 107.3 878.5 109.7L900 112L900 0L878.5 0C857 0 814 0 771.2 0C728.3 0 685.7 0 642.8 0C600 0 557 0 514.2 0C471.3 0 428.7 0 385.8 0C343 0 300 0 257.2 0C214.3 0 171.7 0 128.8 0C86 0 43 0 21.5 0L0 0Z" fill="#110241"></path></svg>